<?xml version="1.0" encoding="utf-8"?>
<!-- Generator: Adobe Illustrator 25.3.1, SVG Export Plug-In . SVG Version: 6.00 Build 0)  -->
<svg version="1.1" id="圖層_1" xmlns="http://www.w3.org/2000/svg" xmlns:xlink="http://www.w3.org/1999/xlink" x="0px" y="0px"
	 viewBox="0 0 283.5 283.5" style="enable-background:new 0 0 283.5 283.5;" xml:space="preserve">
<style type="text/css">
	.st0{fill:#091CA9;}
</style>
<path id="Arrow_34_" class="st0" d="M0.1,141.8c0,78.1,63.5,141.6,141.6,141.6c78.1,0,141.6-63.5,141.6-141.6S219.8,0.2,141.7,0.2
	S0.1,63.8,0.1,141.8z M256.5,141.8c0,63.3-51.5,114.8-114.8,114.8S26.9,205.1,26.9,141.8S78.4,27.1,141.7,27.1
	C205,27.1,256.5,78.6,256.5,141.8z M95,108l46.7,45.8l46.7-45.8c5.3-5.2,13.8-5.1,19,0.2c5.2,5.3,5.1,13.8-0.2,19l-56.1,55
	c-5.2,5.1-13.6,5.1-18.8,0l-56.1-55c-2.7-2.6-4-6.1-4-9.6c0-3.4,1.3-6.8,3.8-9.4C81.2,102.9,89.7,102.8,95,108z"/>
</svg>
