<?xml version="1.0" encoding="utf-8"?>
<!-- Generator: Adobe Illustrator 25.3.1, SVG Export Plug-In . SVG Version: 6.00 Build 0)  -->
<svg version="1.1" id="圖層_1" xmlns="http://www.w3.org/2000/svg" xmlns:xlink="http://www.w3.org/1999/xlink" x="0px" y="0px"
	 viewBox="0 0 283.46 283.46" style="enable-background:new 0 0 283.46 283.46;" xml:space="preserve">
<style type="text/css">
	.st0{fill:#B7B6B6;}
</style>
<path id="Arrow_34_" class="st0" d="M283.34,141.84c0-78.09-63.53-141.63-141.63-141.63C63.62,0.21,0.08,63.75,0.08,141.84
	s63.53,141.63,141.63,141.63C219.8,283.46,283.34,219.93,283.34,141.84z M26.95,141.84c0-63.28,51.48-114.76,114.76-114.76
	c63.28,0,114.76,51.48,114.76,114.76c0,63.28-51.48,114.76-114.76,114.76C78.43,256.6,26.95,205.12,26.95,141.84z M188.41,175.7
	l-46.7-45.75l-46.7,45.75c-5.3,5.19-13.8,5.1-19-0.2c-5.19-5.3-5.1-13.8,0.2-19l56.1-54.96c5.22-5.12,13.58-5.12,18.8,0l56.1,54.96
	c2.69,2.63,4.03,6.11,4.03,9.6c0,3.39-1.28,6.79-3.84,9.4C202.22,180.8,193.71,180.89,188.41,175.7z"/>
</svg>
