<?xml version="1.0" encoding="utf-8"?>
<!-- Generator: Adobe Illustrator 27.2.0, SVG Export Plug-In . SVG Version: 6.00 Build 0)  -->
<svg version="1.1" id="圖層_1" xmlns="http://www.w3.org/2000/svg" xmlns:xlink="http://www.w3.org/1999/xlink" x="0px" y="0px"
	 viewBox="0 0 283.5 283.5" style="enable-background:new 0 0 283.5 283.5;" xml:space="preserve">
<style type="text/css">
	.st0{fill:#FFFFFF;}
</style>
<path d="M256.5,141.8c0,63.3-51.5,114.8-114.8,114.8S27,205.1,27,141.8S78.5,27.1,141.8,27.1S256.5,78.6,256.5,141.8z"/>
<path class="st0" d="M141.7,0.2C63.6,0.2,0.1,63.8,0.1,141.8c0,78.1,63.5,141.6,141.6,141.6s141.6-63.5,141.6-141.6
	S219.8,0.2,141.7,0.2z M141.7,256.6c-63.3,0-114.8-51.5-114.8-114.8S78.4,27.1,141.7,27.1s114.8,51.5,114.8,114.7
	C256.5,205.1,205,256.6,141.7,256.6z"/>
<path class="st0" d="M207.3,185.7l-44.8-43.9L207.2,98c5.3-5.2,5.4-13.7,0.2-19c-5.2-5.3-13.7-5.4-19-0.2l-46.7,45.8L95,78.8
	c-5.3-5.2-13.8-5.1-19,0.2c-2.5,2.6-3.8,6-3.8,9.4c0,3.5,1.3,7,4,9.6l44.8,43.9l-44.8,43.9c-5.3,5.2-5.4,13.7-0.2,19
	c5.2,5.3,13.7,5.4,19,0.2l46.7-45.8l46.7,45.8c5.3,5.2,13.8,5.1,19-0.2c2.5-2.6,3.8-6,3.8-9.4C211.3,191.8,210,188.3,207.3,185.7z"
	/>
</svg>
