<?xml version="1.0" encoding="utf-8"?>
<!-- Generator: Adobe Illustrator 26.5.2, SVG Export Plug-In . SVG Version: 6.00 Build 0)  -->
<svg version="1.1" id="圖層_1" xmlns="http://www.w3.org/2000/svg" xmlns:xlink="http://www.w3.org/1999/xlink" x="0px" y="0px"
	 viewBox="0 0 24 24" style="enable-background:new 0 0 24 24;" xml:space="preserve">
<style type="text/css">
	.st0{fill:#FFFFFF;}
</style>
<path class="st0" d="M22.8,6.8c0-0.1-0.1-0.2-0.1-0.3c-0.1-0.2-0.2-0.3-0.3-0.5c-0.2-0.3-0.4-0.7-0.6-1c-0.1-0.1-0.1-0.2-0.2-0.2
	C21.3,4.4,21,4,20.7,3.7c-0.2-0.2-0.4-0.4-0.6-0.6c-0.2-0.2-0.4-0.4-0.7-0.6c-0.2-0.1-0.3-0.2-0.5-0.3c-0.1-0.1-0.2-0.1-0.2-0.2
	c-0.2-0.2-0.5-0.3-0.7-0.5c-0.2-0.1-0.3-0.2-0.5-0.3c-0.3-0.1-0.5-0.3-0.8-0.4C15.2,0.3,13.7,0,12,0l0,0C7.8,0,4.1,2.2,2,5.5
	c-0.3,0.3-0.5,0.7-0.7,1C0.6,7.9,0.2,9.3,0,10.9c0,0.4,0,0.7,0,1.1c0,0.6,0,1.2,0.1,1.8c0,0.3,0.1,0.6,0.2,0.9
	c0.1,0.3,0.1,0.6,0.2,0.9c0,0.1,0.1,0.2,0.1,0.3c0.1,0.2,0.1,0.4,0.2,0.6C1,17,1.2,17.4,1.4,17.8c0.1,0.2,0.2,0.3,0.3,0.5
	c0.1,0.1,0.1,0.2,0.2,0.2C2,18.7,2.1,18.8,2.2,19c0.1,0.1,0.1,0.2,0.2,0.2C2.7,19.6,3,20,3.3,20.3c0.4,0.4,0.8,0.8,1.3,1.2
	c0.2,0.2,0.5,0.3,0.7,0.5c0.2,0.1,0.3,0.2,0.5,0.3c0.2,0.1,0.3,0.2,0.5,0.3c0.3,0.1,0.5,0.3,0.8,0.4c1.5,0.6,3.1,1,4.9,1
	c1.7,0,3.2-0.3,4.7-0.9c0.1-0.1,0.3-0.1,0.4-0.2c0.2-0.1,0.4-0.2,0.7-0.3c0.1-0.1,0.3-0.2,0.4-0.2c0.2-0.1,0.4-0.2,0.6-0.4
	c0.2-0.2,0.5-0.3,0.7-0.5s0.4-0.4,0.7-0.6c0.2-0.2,0.4-0.4,0.6-0.6c0.3-0.3,0.6-0.7,0.9-1.1c0.1-0.1,0.1-0.2,0.2-0.2
	c0.2-0.3,0.4-0.6,0.6-0.9c0-0.1,0.1-0.1,0.1-0.2c0.1-0.1,0.2-0.3,0.2-0.4s0.1-0.2,0.1-0.3c0.8-1.6,1.2-3.3,1.2-5.2
	C24,10.1,23.6,8.4,22.8,6.8z M15.8,15.2c0,0.1-0.1,0.2-0.1,0.2c-0.1,0.1-0.1,0.2-0.2,0.3l-0.1,0.1c-0.1,0.1-0.1,0.1-0.2,0.2
	c0,0.1-0.1,0.1-0.1,0.2c0,0-0.1,0.1-0.2,0.1l-0.1,0.1c-0.1,0.1-0.2,0.1-0.2,0.2c-0.1,0.1-0.2,0.1-0.3,0.2c-0.2,0.1-0.4,0.2-0.6,0.3
	c-0.2,0.1-0.5,0.2-0.7,0.2c0,0,0,0-0.1,0l0,0c0,0,0,0-0.1,0l0,0v0.8c0,0.1,0,0.2,0,0.3c0,0.1-0.1,0.3-0.2,0.4
	c-0.1,0.1-0.2,0.2-0.4,0.2c-0.1,0-0.1,0-0.2,0h-0.1l0,0h-0.1c-0.1,0-0.1,0-0.2,0h-0.1c0,0-0.1,0-0.1-0.1h-0.1c0,0-0.1,0-0.1-0.1
	c0,0,0,0-0.1-0.1L11,18.6c0-0.1-0.1-0.1-0.1-0.2s0-0.2,0-0.3v-0.7l0,0l0,0l0,0c0,0-0.1,0-0.2-0.1c-0.1,0-0.2,0-0.3,0
	c-0.2,0-0.4-0.1-0.6-0.1c-0.1,0-0.2,0-0.3-0.1C9.3,17,9.1,17,8.9,16.9C8.8,17,8.7,17,8.6,17c-0.1,0-0.2-0.1-0.2-0.1s0,0-0.1-0.1
	l-0.1-0.1l-0.1-0.1v-0.1v-0.1c0-0.1,0-0.2,0-0.2v-0.1V16v-0.1v-0.1l0.1-0.1l0,0c0,0,0-0.1,0.1-0.1l0,0c0,0,0-0.1,0.1-0.1l0,0
	l0.1-0.1l0,0c0,0,0.1,0,0.1-0.1l0,0c0,0,0.1,0,0.1-0.1l0,0h0.1l0,0h0.1l0,0H9l0,0l0,0l0,0c0,0,0,0,0.1,0l0,0c0,0,0,0,0.1,0l0,0
	c0,0,0,0,0.1,0l0,0l0,0h0.1l0,0c0.1,0,0.2,0.1,0.4,0.1c0.4,0.1,1,0.3,1.7,0.3c0.4,0,0.8-0.1,1.1-0.2c0.1,0,0.1-0.1,0.2-0.1
	c0.1,0,0.2-0.1,0.2-0.1c0.1,0,0.1-0.1,0.1-0.1s0-0.1,0.1-0.1c0.1-0.1,0.1-0.2,0.2-0.3c0-0.1,0-0.1,0.1-0.2s0-0.1,0-0.2l0,0v-0.1
	v-0.1V14v-0.1l0,0c0,0,0-0.1-0.1-0.1l-0.1-0.1l-0.1-0.1l-0.1-0.1L13,13.4c-0.1-0.1-0.2-0.1-0.3-0.2c0,0-0.1,0-0.1-0.1
	c0,0-0.1,0-0.1-0.1c0,0-0.1,0-0.1-0.1c0,0-0.1,0-0.1-0.1c-0.1,0-0.2-0.1-0.3-0.1c0,0-0.1,0-0.2-0.1c-0.1,0-0.1,0-0.2-0.1
	c-0.3-0.1-0.6-0.2-0.9-0.3c-0.1,0-0.2-0.1-0.3-0.1c-0.2-0.1-0.4-0.2-0.6-0.3c-0.1-0.1-0.2-0.1-0.3-0.2c-0.1-0.1-0.2-0.1-0.3-0.2
	C9.1,11.3,9,11.3,9,11.2c-0.1-0.1-0.2-0.1-0.2-0.2c-0.1-0.1-0.1-0.1-0.2-0.2c-0.1-0.1-0.1-0.2-0.2-0.2c-0.1-0.2-0.2-0.4-0.3-0.7
	c0-0.1,0-0.2-0.1-0.3c0-0.1,0-0.2,0-0.3l0,0l0,0c0-0.4,0.1-0.9,0.3-1.2C8.3,8,8.4,8,8.4,7.9c0.1-0.1,0.2-0.3,0.3-0.4
	c0.3,0,0.6-0.2,0.8-0.4C9.7,7,9.9,6.9,10.1,6.8c0.2-0.1,0.4-0.1,0.5-0.2c0.1,0,0.1,0,0.2,0l0,0h0.1l0,0l0,0l0,0V5.7
	c0-0.1,0-0.2,0-0.3V5.3V5.2c0,0,0-0.1,0.1-0.1C11,5,11.1,5,11.2,4.9c0.1,0,0.1-0.1,0.2-0.1c0.1,0,0.2-0.1,0.4-0.1c0,0,0,0,0.1,0
	c0.4,0,0.7,0.2,0.9,0.5c0,0.1,0.1,0.1,0.1,0.2s0,0.2,0,0.3v0.6l0,0c0,0,0,0,0,0.1c0,0,0,0,0.1,0h0.1c0.2,0,0.4,0.1,0.6,0.1
	c0.1,0,0.1,0,0.2,0c0.1,0,0.3,0.1,0.4,0.1c0.1,0,0.3,0.1,0.4,0.1c0.1,0,0.1,0.1,0.2,0.1C15,6.9,15.1,7,15.1,7s0,0,0.1,0.1
	c0,0,0,0,0.1,0.1c0,0,0,0.1,0.1,0.1v0.1c0,0.1,0,0.1,0,0.2s0,0.1,0,0.2l0,0l0,0c0,0.1,0,0.2-0.1,0.3l-0.1,0.1c0,0,0,0.1-0.1,0.1l0,0
	l0,0c0,0,0,0.1-0.1,0.1l0,0l-0.1,0.1l0,0c0,0-0.1,0-0.1,0.1l0,0c0,0-0.1,0-0.1,0.1l0,0h-0.1l0,0h-0.1l0,0h-0.1l0,0l0,0l0,0
	c0,0,0,0-0.1,0l0,0l0,0c0,0,0,0-0.1,0l0,0h-0.1c-0.3-0.1-0.6-0.2-0.9-0.2c-0.3,0-0.6-0.1-0.9-0.1c-0.1,0-0.2,0-0.3,0
	c-1,0.1-1.4,0.6-1.4,1c0,0,0,0,0,0.1c0,0.2,0.1,0.4,0.4,0.6c0.1,0.1,0.2,0.1,0.3,0.2c0.1,0,0.1,0.1,0.2,0.1c0.1,0,0.2,0.1,0.3,0.1
	s0.2,0.1,0.3,0.1s0.2,0.1,0.3,0.1s0.1,0.1,0.2,0.1c0.1,0,0.2,0.1,0.2,0.1c0.1,0,0.2,0.1,0.3,0.1s0.2,0.1,0.3,0.1s0.1,0,0.2,0.1
	c0.2,0.1,0.3,0.1,0.4,0.2c0,0,0.1,0,0.1,0.1c0.1,0,0.2,0.1,0.3,0.2l0.1,0.1c0.1,0.1,0.2,0.1,0.3,0.2c0.3,0.2,0.5,0.4,0.7,0.7
	c0.3,0.5,0.5,1,0.5,1.7C16,14.6,15.9,14.9,15.8,15.2z"/>
</svg>
