<?xml version="1.0" encoding="utf-8"?>
<!-- Generator: Adobe Illustrator 25.3.1, SVG Export Plug-In . SVG Version: 6.00 Build 0)  -->
<svg version="1.1" id="圖層_1" xmlns="http://www.w3.org/2000/svg" xmlns:xlink="http://www.w3.org/1999/xlink" x="0px" y="0px"
	 viewBox="0 0 100 100" style="enable-background:new 0 0 100 100;" xml:space="preserve">
<style type="text/css">
	.st0{fill:#FEC08E;}
</style>
<path class="st0" d="M73.5,43.6c0.2-0.3,0.6-0.4,0.9-0.4c8.3-0.2,15.1-2.8,19.3-7.3c6.7-7.1,6.2-16.8,6.2-17.2L99.9,17
	c0-0.7-0.6-1.2-1.3-1.2H86.9c-0.8,0-1.3-0.7-1.3-1.4c0.2-1.6,0.3-3.3,0.4-5c0-0.7,0.6-1.2,1.3-1.2h3.6c0.7,0,1.3-0.6,1.3-1.3V3.5
	c0-0.7-0.6-1.3-1.3-1.3h-82c-0.7,0-1.3,0.6-1.3,1.3v3.4c0,0.7,0.6,1.3,1.3,1.3h3.6c0.7,0,1.2,0.5,1.3,1.2c0.1,1.7,0.2,3.4,0.4,5
	c0.1,0.8-0.5,1.4-1.3,1.4H1.4c-0.7,0-1.2,0.5-1.3,1.2l-0.1,1.6C0,19-0.5,28.7,6.2,35.8c4.2,4.4,10.9,7,19,7.3c0.4,0,0.7,0.2,0.9,0.4
	c3.7,4.3,8,7.6,12.7,9.6c0.7,0.3,0.9,1.1,0.6,1.7c-0.5,0.9-0.7,1.9-0.7,3c0,0.9,0.2,1.8,0.6,2.7c0.3,0.7,0,1.4-0.7,1.7
	c-5.1,1.9-8.9,5.2-10.3,9.2c-0.2,0.5-0.7,0.8-1.2,0.8h-8.5c-0.7,0-1.3,0.6-1.3,1.3v23c0,0.7,0.6,1.3,1.3,1.3h62.4
	c0.7,0,1.3-0.6,1.3-1.3v-23c0-0.7-0.6-1.3-1.3-1.3h-8.5c-0.5,0-1-0.3-1.2-0.8c-1.5-3.9-5.3-7.2-10.3-9.2c-0.7-0.3-1-1-0.7-1.7
	c0.4-0.8,0.6-1.7,0.6-2.7c0-1.1-0.2-2.1-0.7-3c-0.3-0.7-0.1-1.5,0.6-1.7C65.5,51.1,69.9,47.8,73.5,43.6z M23.3,90.6V79.4
	c0-0.7,0.6-1.3,1.3-1.3h50.6c0.7,0,1.3,0.6,1.3,1.3v11.1c0,0.7-0.6,1.3-1.3,1.3H24.6C23.9,91.8,23.3,91.3,23.3,90.6z M37.6,72.2
	c-1.2,0-1.7-1.6-0.8-2.3c3-2.2,7.8-3.7,13.1-3.7c5.3,0,10.1,1.5,13.1,3.7c1,0.7,0.4,2.3-0.8,2.3H37.6z M54.9,57.9
	c0,1-2.1,2.4-5.1,2.4c-2.9,0-5.1-1.5-5.1-2.4s2.1-2.4,5.1-2.4C52.8,55.4,54.9,56.9,54.9,57.9z M20.1,34.4c0.5,1-0.4,2.1-1.4,1.8
	c-3.4-0.9-6.2-2.4-8.1-4.4c-2.6-2.7-3.7-6-4.2-8.5c-0.2-0.8,0.4-1.5,1.2-1.5h6.8c0.6,0,1.1,0.4,1.2,1C16.8,26.9,18.3,30.8,20.1,34.4
	z M78.8,8.2c0.7,0,1.3,0.6,1.3,1.3c-1,22.3-14.1,40-30.2,40c-16.1,0-29.2-17.7-30.2-40c0-0.7,0.6-1.3,1.3-1.3H78.8z M85.3,21.8h7.1
	c0.8,0,1.4,0.7,1.2,1.5c-0.5,2.5-1.7,5.8-4.2,8.5c-2,2.1-4.9,3.6-8.4,4.5c-1,0.3-1.9-0.8-1.4-1.8c1.9-3.6,3.4-7.6,4.5-11.8
	C84.2,22.2,84.7,21.8,85.3,21.8z"/>
</svg>
