<?xml version="1.0" encoding="utf-8"?>
<!-- Generator: Adobe Illustrator 25.4.1, SVG Export Plug-In . SVG Version: 6.00 Build 0)  -->
<svg version="1.1" id="圖層_1" xmlns="http://www.w3.org/2000/svg" xmlns:xlink="http://www.w3.org/1999/xlink" x="0px" y="0px"
	 viewBox="0 0 50 50" style="enable-background:new 0 0 50 50;" xml:space="preserve">
<style type="text/css">
	.st0{fill:#FFFFFF;}
	.st1{fill:#FEC08E;}
</style>
<rect x="8.6" y="9.4" class="st0" width="31.3" height="32.8"/>
<g>
	<path class="st1" d="M25,0C11.2,0,0,11.2,0,25s11.2,25,25,25s25-11.2,25-25S38.8,0,25,0z M38,25.1c-0.5,0.5-1.2,0.8-1.9,0.8
		s-1.4-0.3-1.9-0.8l-6.5-6.5v19.6c0,1.5-1.2,2.7-2.7,2.7s-2.7-1.2-2.7-2.7V18.6l-6.5,6.5c-0.5,0.5-1.2,0.8-1.9,0.8s-1.4-0.3-1.9-0.8
		s-0.8-1.2-0.8-1.9s0.3-1.4,0.8-1.9l11.1-11.1c0.2-0.2,0.5-0.4,0.9-0.6c0.3-0.1,0.7-0.2,1-0.2s0.7,0.1,1,0.2
		c0.3,0.1,0.6,0.3,0.9,0.6L38,21.3c0.5,0.5,0.8,1.2,0.8,1.9S38.5,24.6,38,25.1z"/>
</g>
</svg>
