<?xml version="1.0" encoding="utf-8"?>
<!-- Generator: Adobe Illustrator 25.3.1, SVG Export Plug-In . SVG Version: 6.00 Build 0)  -->
<svg version="1.1" id="圖層_1" xmlns="http://www.w3.org/2000/svg" xmlns:xlink="http://www.w3.org/1999/xlink" x="0px" y="0px"
	 viewBox="0 0 100 100" style="enable-background:new 0 0 100 100;" xml:space="preserve">
<style type="text/css">
	.st0{fill:#8889E8;}
</style>
<g>
	<circle class="st0" cx="50" cy="40" r="15"/>
	<path class="st0" d="M50,0C22.4,0,0,22.4,0,50c0,27.6,22.4,50,50,50c27.6,0,50-22.4,50-50C100,22.4,77.6,0,50,0z M50,95
		C25.2,95,5,74.8,5,50C5,25.2,25.2,5,50,5c24.8,0,45,20.2,45,45C95,74.8,74.8,95,50,95z"/>
	<path class="st0" d="M50,88.4c14.3,0,26.8-8,33.2-19.7c-4-5.5-17.3-9.5-33.2-9.5c-15.9,0-29.3,4-33.2,9.5
		C23.2,80.4,35.7,88.4,50,88.4z"/>
</g>
</svg>
