<?xml version="1.0" encoding="utf-8"?>
<!-- Generator: Adobe Illustrator 26.5.2, SVG Export Plug-In . SVG Version: 6.00 Build 0)  -->
<svg version="1.1" id="Layer_3" xmlns="http://www.w3.org/2000/svg" xmlns:xlink="http://www.w3.org/1999/xlink" x="0px" y="0px"
	 viewBox="0 0 114.21 33.25" style="enable-background:new 0 0 114.21 33.25;" xml:space="preserve">
<style type="text/css">
	.st0{fill:#FFFFFF;}
</style>
<path class="st0" d="M22.38,1.25c-3.94-2.48-9.13-0.95-13,2.34s-8.26,10.44-9.2,18.04c-0.95,7.6,2.19,9.35,3.8,10.74
	s7.96,1.17,11.1-0.88c3.14-2.04,5.84-7.52,6.28-10.37s-1.46-0.8-2.41,0.8c-0.95,1.61-3.43,3.8-5.04,4.16
	c-1.61,0.37-5.19,0.66-6.57-1.53c-1.39-2.19,0.29-3.43,0.29-3.43s3.07-1.61,6.43-2.63s9.28-3.87,10.37-7.96
	C24.43,10.53,26.33,3.73,22.38,1.25z M18.36,9.58c0,0-1.97,2.05-4.24,3.07c-2.26,1.02-5.55,1.39-5.55,1.39
	c1.24-4.82,5.04-8.4,7.89-8.18C19.31,6.07,18.36,9.58,18.36,9.58z"/>
<path class="st0" d="M39.89,9.19c0,0-2.87-3.01-7.45-2.38c-4.58,0.63-6.04,3.06-7.21,5.69c-1.17,2.63-0.84,5.45,0.09,7.15
	c0.93,1.7,3.72,2.56,4.19,3.51c0.68,1.36,0.56,2.59-0.83,3.07c-0.77,0.27-2.29,0-2.87-0.44s-1.55-1.95-1.55-1.95l-1.87,1.85
	l-2.37,2.82c0,0,2.39,2.63,4.33,3.07c1.95,0.44,4.33,0.49,6.91-0.97c2.61-1.48,3.51-3.36,4.29-4.77s1.51-5.99,0.03-7.47
	c-0.96-0.96-2.4-1.86-4.46-3.92c-1.22-1.22,1.36-3.94,3.21-2.58c1.85,1.36,1.56,1.85,1.56,1.85L39.89,9.19z"/>
<path class="st0" d="M57.81,10.76c-0.09-0.97,0.36-2.05-2.23-2.87c-2.56-0.81-4.93,1.1-4.93,1.1l-2.78,2.15L51.67,0h-6.43l-9.79,33
	h5.27l0.97-3.52c0,0,0.24,2.07,1.41,2.46c1.17,0.39,2.44,0.73,5.16,0.34c2.73-0.39,4.77-4.94,6.14-8.11
	C56.69,18.86,58.05,13.39,57.81,10.76z M50.84,15.76c-0.39,1.75-3.07,8.58-3.07,8.58s-0.93,2.28-2.68,1.89s-1.33-2.09-1.33-2.09
	l3.13-8.96c0,0,0.68-2.04,2.73-2.04C50.5,13.13,51.23,14.01,50.84,15.76z"/>
<path class="st0" d="M73.97,16.35c0,0,2.67-4.35-0.58-7.07c-2.34-1.95-7.86-1.36-9.66-0.34c-1.8,1.02-3.54,1.7-3.54,1.7l1.12,4.24
	c0,0,2.04-1.7,3.36-2.14c1.31-0.44,3.46-0.78,3.94,0.1c0.73,1.32-0.58,3.14-0.39,3.9c0.15,0.58-4.82-0.6-8.81,2.55
	c-3.19,2.53-4.33,4.17-4.97,8.26c-0.57,3.66,1.36,4.87,2.82,5.26c1.46,0.39,4.87-0.63,6.72-2.43c1.85-1.8,1.07-0.93,1.07-0.93
	s0.44,1.9,0.83,2.41s4.63,0.48,4.63,0.48l1.18-4.59c0,0-0.4,0.14-0.64-0.1c-0.24-0.24-0.91-0.62,0.24-3.61
	C72.71,20.34,73.97,16.35,73.97,16.35z M63.99,26.77c-0.19,0.34-1.61,1.22-2.48,0.88c-0.88-0.34-1.27-1.7-0.83-2.73
	c0.44-1.02,1.61-2.48,2.82-3.51c1.22-1.02,3.26-1.07,3.26-1.07C67.84,20.92,64.19,26.42,63.99,26.77z"/>
<polygon class="st0" points="82.35,0 88.78,0 77.72,33 71.83,33 "/>
<polygon class="st0" points="90.82,0 96.96,0 86.39,33 80.3,33 "/>
<polygon class="st0" points="103.76,11.67 96.96,33 103.05,33 109.88,11.67 "/>
<polygon class="st0" points="114.21,19.39 93.57,19.39 91.75,25.06 112.41,25.06 "/>
</svg>
