<?xml version="1.0" encoding="utf-8"?>
<!-- Generator: Adobe Illustrator 25.3.1, SVG Export Plug-In . SVG Version: 6.00 Build 0)  -->
<svg version="1.1" id="分離模式" xmlns="http://www.w3.org/2000/svg" xmlns:xlink="http://www.w3.org/1999/xlink" x="0px"
	 y="0px" viewBox="0 0 1000 1000" style="enable-background:new 0 0 1000 1000;" xml:space="preserve">
<style type="text/css">
	.st0{fill:#FFFFFF;}
</style>
<g>
	<path class="st0" d="M581.97,288.5c-6.53,0-12.73-3.87-15.39-10.28c-34.25-82.59-114.16-135.95-203.57-135.95
		c-10.36,0-20.78,0.73-30.97,2.16c-9.09,1.28-17.53-5.07-18.81-14.17c-1.28-9.11,5.06-17.53,14.17-18.81
		c11.71-1.65,23.69-2.48,35.6-2.48c102.92,0,194.91,61.43,234.34,156.5c3.52,8.5-0.51,18.24-9,21.77
		C586.25,288.09,584.09,288.5,581.97,288.5z"/>
</g>
<g>
	<path class="st0" d="M599.94,379.2c-9.2,0-16.66-7.46-16.66-16.66c0-10.45-0.74-20.96-2.2-31.23c-1.29-9.11,5.05-17.54,14.15-18.83
		c9.12-1.3,17.54,5.05,18.83,14.15c1.67,11.81,2.52,23.89,2.52,35.9C616.6,371.74,609.14,379.2,599.94,379.2z"/>
</g>
<path class="st0" d="M983.58,882.16L738.43,637.04c-17.02-17.03-42.21-20.41-62.77-10.61l-32.83-33.36
	c117.54-142.44,109.72-353.59-23.52-486.85c-141.65-141.62-371.25-141.62-512.86,0c-141.63,141.63-141.63,371.23,0,512.83
	c133.26,133.3,344.39,141.09,486.88,23.57l32.8,33.28c-9.8,20.56-6.41,45.79,10.6,62.82l245.14,245.09
	c21.6,21.59,56.58,21.59,78.22,0l23.47-23.46C1005.16,938.76,1005.16,903.72,983.58,882.16z M363.01,670.23
	c-169.93,0-307.68-137.76-307.68-307.68c0-169.93,137.75-307.68,307.68-307.68c169.93,0,307.69,137.76,307.69,307.68
	C670.69,532.47,532.94,670.23,363.01,670.23z M952.61,896.38c-1.03,1.03-2.37,1.54-3.72,1.54c-1.35,0-2.69-0.51-3.72-1.54
	L715.35,666.55c-2.05-2.05-2.05-5.38,0-7.44c2.05-2.05,5.38-2.05,7.44,0l229.83,229.83C954.67,891,954.67,894.33,952.61,896.38z"/>
</svg>
