<?xml version="1.0" encoding="utf-8"?>
<!-- Generator: Adobe Illustrator 26.5.2, SVG Export Plug-In . SVG Version: 6.00 Build 0)  -->
<svg version="1.1" id="圖層_1_xA0_影像_00000151531569678603001880000003880055839164254348_"
	 xmlns="http://www.w3.org/2000/svg" xmlns:xlink="http://www.w3.org/1999/xlink" x="0px" y="0px" viewBox="0 0 281 260"
	 style="enable-background:new 0 0 281 260;" xml:space="preserve">
<style type="text/css">
	.st0{fill:#C82034;}
</style>
<path class="st0" d="M140.3,259.3c-39.5,0-79,0-118.5,0c-11,0-18.2-4.8-20.3-14.6c-0.9-4-0.4-9.2,1.5-12.8
	c21.5-40.2,43.4-80.1,65.2-120.1c15.8-29.1,31.7-58.1,47.5-87.2c2.4-4.4,4.7-8.8,7.3-13.1c8.2-14.1,26.4-14.3,34.3-0.1
	c13.7,24.5,27,49.3,40.5,74c22.4,41,44.8,82.1,67.2,123.1c4.1,7.4,7.7,15.1,12.2,22.3c7.8,12.6-2.4,28.8-16.8,28.6
	c-18.2-0.2-36.3,0-54.5,0C184,259.3,162.2,259.3,140.3,259.3z M140.4,79.6c-4.5,0-9,0-13.5,0c-8.4,0-10,1.7-9.6,10
	c0.8,21.4,1.7,42.9,2.5,64.3c0.2,5.5,1.7,7.1,7.3,7.2c8.8,0.1,17.7,0.1,26.5,0c4.6,0,7.1-2.2,7.2-7c0.1-6.5,0.5-13,0.8-19.4
	c0.6-15.3,1.2-30.6,1.7-45.9c0.3-7.5-1.3-9.1-8.9-9.2C149.7,79.6,145.1,79.6,140.4,79.6z M119.8,199.9c0,4.8,0,9.6,0,14.5
	c0,3.8,2,6.3,5.6,6.4c9.8,0.3,19.6,0.3,29.4,0c3.6-0.1,5.8-2.4,5.8-6.2c0.1-9.6,0.1-19.3,0-28.9c0-4.2-2.3-6.5-6.6-6.5
	c-9.1,0-18.3,0-27.4,0c-4.5,0-6.7,2.4-6.8,6.8C119.8,190.6,119.8,195.3,119.8,199.9z"/>
</svg>
