<?xml version="1.0" encoding="utf-8"?>
<!-- Generator: Adobe Illustrator 25.3.1, SVG Export Plug-In . SVG Version: 6.00 Build 0)  -->
<svg version="1.1" id="圖層_1" xmlns="http://www.w3.org/2000/svg" xmlns:xlink="http://www.w3.org/1999/xlink" x="0px" y="0px"
	 viewBox="0 0 45 45" style="enable-background:new 0 0 45 45;" xml:space="preserve">
<style type="text/css">
	.st0{fill:#FEC597;}
</style>
<g>
	<circle class="st0" cx="22.5" cy="14.93" r="7.25"/>
	<path class="st0" d="M22.5,0C10.1,0,0,10.1,0,22.5S10.1,45,22.5,45S45,34.9,45,22.5S34.9,0,22.5,0z M37.27,35.46
		c-0.04-0.52-0.13-1.08-0.29-1.68c-0.88-3.48-2.1-7.2-5.67-8.59c-3.3-1.29-5.64,0.16-8.82,0.19c-3.17-0.03-5.52-1.48-8.82-0.19
		C10.1,26.58,8.88,30.3,8,33.78c-0.15,0.6-0.24,1.16-0.29,1.68c-3.04-3.46-4.89-8-4.89-12.96c0-10.84,8.82-19.66,19.66-19.66
		s19.66,8.82,19.66,19.66C42.16,27.46,40.31,32,37.27,35.46z"/>
</g>
</svg>
