<?xml version="1.0" encoding="utf-8"?>
<!-- Generator: Adobe Illustrator 25.3.1, SVG Export Plug-In . SVG Version: 6.00 Build 0)  -->
<svg version="1.1" id="圖層_1" xmlns="http://www.w3.org/2000/svg" xmlns:xlink="http://www.w3.org/1999/xlink" x="0px" y="0px"
	 viewBox="0 0 17 17" style="enable-background:new 0 0 17 17;" xml:space="preserve">
<style type="text/css">
	.st0{fill:#FFFFFF;}
</style>
<g>
	<path class="st0" d="M14.5,2.5c-0.8-0.8-1.7-1.4-2.7-1.8C10.8,0.2,9.6,0,8.5,0S6.2,0.2,5.2,0.7c-1,0.4-1.9,1-2.7,1.8
		S1.1,4.2,0.7,5.2C0.2,6.2,0,7.3,0,8.5s0.2,2.3,0.7,3.3c0.4,1,1,1.9,1.8,2.7s1.7,1.4,2.7,1.8c1,0.5,2.2,0.7,3.3,0.7s2.3-0.2,3.3-0.7
		c1-0.4,1.9-1,2.7-1.8s1.4-1.7,1.8-2.7c0.5-1.1,0.7-2.2,0.7-3.3s-0.2-2.3-0.7-3.3C15.9,4.2,15.3,3.3,14.5,2.5z M8.5,16
		C4.3,16,1,12.7,1,8.5S4.3,1,8.5,1S16,4.3,16,8.5S12.7,16,8.5,16z"/>
	<path class="st0" d="M8.4,11.6c-0.2,0-0.4,0.1-0.6,0.2s-0.2,0.4-0.2,0.6c0,0.3,0.1,0.5,0.2,0.6c0.2,0.1,0.4,0.2,0.6,0.2
		S8.8,13.1,9,13c0.2-0.1,0.2-0.4,0.2-0.6c0-0.2-0.1-0.4-0.2-0.6C8.9,11.6,8.7,11.6,8.4,11.6z"/>
	<path class="st0" d="M10,4.5C9.6,4.3,9.1,4.2,8.6,4.2C8,4.2,7.5,4.3,7,4.6C6.6,4.8,6.2,5.1,6,5.5c-0.2,0.3-0.3,0.7-0.3,1
		c0,0.2,0.1,0.3,0.2,0.5s0.3,0.2,0.5,0.2C6.8,7.2,7,7,7.2,6.6c0.1-0.4,0.3-0.7,0.5-0.9c0.2-0.2,0.5-0.3,0.9-0.3s0.6,0.1,0.9,0.3
		c0.2,0.2,0.3,0.5,0.3,0.8c0,0.2,0,0.3-0.1,0.4C9.6,7,9.5,7.1,9.4,7.2C9.3,7.3,9.1,7.5,8.9,7.7C8.6,7.9,8.4,8.1,8.2,8.3
		S7.9,8.7,7.8,8.9S7.7,9.4,7.7,9.7c0,0.2,0.1,0.4,0.2,0.6c0.1,0.1,0.3,0.2,0.5,0.2c0.4,0,0.6-0.2,0.7-0.6c0-0.2,0.1-0.3,0.1-0.4
		c0-0.1,0.1-0.1,0.1-0.2c0-0.1,0.1-0.1,0.2-0.2s0.2-0.2,0.3-0.3c0.5-0.4,0.8-0.7,0.9-0.9c0.2-0.2,0.3-0.4,0.5-0.6s0.2-0.5,0.2-0.8
		c0-0.4-0.1-0.8-0.3-1.1C10.7,5,10.4,4.7,10,4.5z"/>
</g>
</svg>
