<?xml version="1.0" encoding="utf-8"?>
<!-- Generator: Adobe Illustrator 26.5.2, SVG Export Plug-In . SVG Version: 6.00 Build 0)  -->
<svg version="1.1" id="Layer_1" xmlns="http://www.w3.org/2000/svg" xmlns:xlink="http://www.w3.org/1999/xlink" x="0px" y="0px"
	 viewBox="0 0 160 160" style="enable-background:new 0 0 160 160;" xml:space="preserve">
<style type="text/css">
	.st0{fill:#FF5C5C;}
	.st1{fill-rule:evenodd;clip-rule:evenodd;fill:#FF5C5C;}
</style>
<g>
	<path class="st0" d="M80,160c-44.11,0-80-35.89-80-80S35.89,0,80,0c14.04,0,27.84,3.69,39.93,10.66c1.64,0.95,2.2,3.05,1.26,4.69
		c-0.61,1.05-1.76,1.71-2.99,1.71c-0.6,0-1.18-0.16-1.7-0.46C105.46,10.23,92.84,6.86,80,6.86C39.67,6.86,6.86,39.67,6.86,80
		c0,40.33,32.81,73.14,73.14,73.14c40.33,0,73.14-32.81,73.14-73.14c0-3.27-0.22-6.56-0.65-9.77c-0.76-5.67-2.18-11.23-4.22-16.52
		c-1.36-3.53-3.01-6.96-4.88-10.2c-0.46-0.79-0.58-1.72-0.34-2.6c0.24-0.88,0.8-1.62,1.6-2.08c0.52-0.3,1.11-0.46,1.71-0.46
		c1.23,0,2.37,0.66,2.98,1.72c2.05,3.56,3.85,7.31,5.33,11.16c2.24,5.81,3.8,11.9,4.62,18.09c0.47,3.51,0.71,7.1,0.71,10.68
		C160,124.11,124.11,160,80,160z"/>
</g>
<path class="st1" d="M63.51,71.02L80,88.07l16.48-17.05C90.54,60.66,69.46,60.66,63.51,71.02 M80,124.76H54.79
	c0,0,0.03-1.51,0.08-4.52c8.52-1.32,26.59-15.49,15.96-26.42c-3.06-3.14-10.01-10.29-20.87-21.46c12.34-25.48,47.73-25.48,60.08,0
	C99.18,83.53,92.22,90.68,89.16,93.82c-10.63,10.93,7.44,25.1,15.96,26.42c0.05,3.01,0.08,4.52,0.08,4.52H80z"/>
<path class="st1" d="M52.75,34.83c2.07,0,3.75,1.68,3.75,3.75c0,0.9-0.32,1.73-0.85,2.37c8.24,7.1,15.83,5.1,22.77-5.99
	c-1.28-0.6-2.17-1.89-2.17-3.4c0-2.07,1.68-3.75,3.75-3.75c2.07,0,3.75,1.68,3.75,3.75c0,1.51-0.89,2.8-2.17,3.4
	c6.94,11.09,14.53,13.09,22.77,5.99c-0.53-0.65-0.85-1.47-0.85-2.37c0-2.07,1.68-3.75,3.75-3.75c2.07,0,3.75,1.68,3.75,3.75
	c0,2.07-1.68,3.75-3.75,3.75c-0.29,0-0.58-0.03-0.85-0.1l-5.89,14.87c-12.22-8.59-28.8-8.59-41.03,0L53.6,42.23
	c-0.27,0.06-0.56,0.1-0.85,0.1c-2.07,0-3.75-1.68-3.75-3.75C49,36.51,50.68,34.83,52.75,34.83"/>
</svg>
