<?xml version="1.0" encoding="utf-8"?>
<!-- Generator: Adobe Illustrator 26.5.2, SVG Export Plug-In . SVG Version: 6.00 Build 0)  -->
<svg version="1.1" id="Layer_1" xmlns="http://www.w3.org/2000/svg" xmlns:xlink="http://www.w3.org/1999/xlink" x="0px" y="0px"
	 viewBox="0 0 160 160" style="enable-background:new 0 0 160 160;" xml:space="preserve">
<style type="text/css">
	.st0{fill:#00C689;}
</style>
<g>
	<g>
		<path class="st0" d="M80,160c-44.11,0-80-35.89-80-80S35.89,0,80,0c14.04,0,27.84,3.69,39.93,10.66c1.64,0.95,2.2,3.05,1.26,4.69
			c-0.61,1.05-1.76,1.71-2.99,1.71c-0.6,0-1.18-0.16-1.7-0.46C105.46,10.23,92.84,6.86,80,6.86C39.67,6.86,6.86,39.67,6.86,80
			c0,40.33,32.81,73.14,73.14,73.14c40.33,0,73.14-32.81,73.14-73.14c0-3.27-0.22-6.56-0.65-9.77c-0.76-5.67-2.18-11.23-4.22-16.52
			c-1.36-3.53-3.01-6.96-4.88-10.2c-0.46-0.79-0.58-1.72-0.34-2.6c0.24-0.88,0.8-1.62,1.6-2.08c0.52-0.3,1.11-0.46,1.71-0.46
			c1.23,0,2.37,0.66,2.98,1.72c2.05,3.56,3.85,7.31,5.33,11.16c2.24,5.81,3.8,11.9,4.62,18.09c0.47,3.51,0.71,7.1,0.71,10.68
			C160,124.11,124.11,160,80,160z"/>
	</g>
	<g>
		<path class="st0" d="M69.79,108.95c-0.92,0-1.78-0.36-2.42-1L46.95,87.53c-1.34-1.34-1.34-3.51,0-4.85c0.65-0.65,1.51-1,2.42-1
			c0.92,0,1.78,0.36,2.42,1l16.81,16.81c0.33,0.33,0.76,0.49,1.18,0.49c0.43,0,0.86-0.16,1.18-0.49l37.23-37.23
			c0.65-0.65,1.51-1,2.42-1s1.78,0.36,2.42,1c1.34,1.34,1.34,3.51,0,4.85l-40.84,40.84C71.57,108.6,70.71,108.95,69.79,108.95z"/>
	</g>
</g>
</svg>
