<?xml version="1.0" encoding="utf-8"?>
<!-- Generator: Adobe Illustrator 24.3.0, SVG Export Plug-In . SVG Version: 6.00 Build 0)  -->
<svg version="1.1" id="圖層_1" xmlns="http://www.w3.org/2000/svg" xmlns:xlink="http://www.w3.org/1999/xlink" x="0px" y="0px"
	 viewBox="0 0 18 18" style="enable-background:new 0 0 18 18;" xml:space="preserve">
<style type="text/css">
	.st0{fill:#DC273F;}
</style>
<path class="st0" d="M9.01,17.34c-2.55,0-5.1-0.01-7.65,0.01c-0.87,0.01-1.41-0.67-1.36-1.3c0.02-0.18,0.08-0.38,0.17-0.54
	c1.66-3.07,3.33-6.13,5-9.19c0.9-1.66,1.8-3.32,2.72-4.97c0.4-0.72,1.27-0.9,1.89-0.4c0.16,0.13,0.29,0.32,0.39,0.5
	c1.64,2.99,3.27,5.99,4.9,8.99c0.91,1.68,1.8,3.37,2.75,5.03c0.5,0.87-0.17,1.9-1.14,1.89C14.13,17.32,11.57,17.34,9.01,17.34z
	 M9.01,5.74c-0.29,0-0.58,0-0.87,0c-0.53,0-0.65,0.13-0.62,0.65c0.06,1.38,0.11,2.76,0.17,4.15C7.7,10.89,7.8,10.99,8.16,11
	c0.57,0.01,1.14,0,1.71,0c0.3,0,0.45-0.15,0.46-0.45c0.01-0.42,0.03-0.84,0.05-1.25c0.04-0.99,0.07-1.97,0.11-2.96
	c0.02-0.49-0.08-0.59-0.57-0.59C9.61,5.74,9.31,5.74,9.01,5.74z M10.32,13.51c0-0.29,0.01-0.58,0-0.87
	c-0.01-0.34-0.13-0.47-0.47-0.47c-0.56-0.01-1.12-0.01-1.68,0c-0.34,0-0.48,0.13-0.48,0.46c-0.01,0.59,0,1.18,0,1.77
	c0,0.29,0.15,0.45,0.43,0.46c0.59,0.01,1.18,0.01,1.77,0c0.28,0,0.44-0.16,0.44-0.45C10.32,14.11,10.32,13.81,10.32,13.51z"/>
</svg>
