<?xml version="1.0" encoding="utf-8"?>
<!-- Generator: Adobe Illustrator 26.0.3, SVG Export Plug-In . SVG Version: 6.00 Build 0)  -->
<svg version="1.1" id="圖層_1" xmlns="http://www.w3.org/2000/svg" xmlns:xlink="http://www.w3.org/1999/xlink" x="0px" y="0px"
	 viewBox="0 0 100 100" style="enable-background:new 0 0 100 100;" xml:space="preserve">
<style type="text/css">
	.st0{fill:#BAE3EE;}
	.st1{fill:#E8F5F7;}
	.st2{fill:#26B2C5;}
	.st3{fill:#6CCBDE;}
</style>
<g>
	<rect x="11.75" y="58.87" class="st0" width="5.87" height="5.87"/>
	<rect x="11.75" y="53" class="st0" width="5.87" height="5.87"/>
	<rect x="11.75" y="47.14" class="st0" width="5.87" height="5.87"/>
	<rect x="11.75" y="41.27" class="st0" width="5.87" height="5.87"/>
	<rect x="11.75" y="35.4" class="st1" width="5.87" height="5.87"/>
	<rect x="23.48" y="58.87" class="st2" width="5.87" height="5.87"/>
	<rect x="23.48" y="53" class="st2" width="5.87" height="5.87"/>
	<rect x="23.48" y="47.14" class="st2" width="5.87" height="5.87"/>
	<rect x="23.48" y="41.27" class="st2" width="5.87" height="5.87"/>
	<rect x="23.48" y="35.4" class="st2" width="5.87" height="5.87"/>
	<rect x="29.35" y="58.87" class="st1" width="5.87" height="5.87"/>
	<rect x="29.35" y="53" class="st0" width="5.87" height="5.87"/>
	<rect x="29.35" y="47.14" class="st0" width="5.87" height="5.87"/>
	<rect x="29.35" y="41.27" class="st1" width="5.87" height="5.87"/>
	<rect x="29.35" y="35.4" class="st1" width="5.87" height="5.87"/>
	<rect x="35.21" y="58.87" class="st3" width="5.87" height="5.87"/>
	<rect x="35.21" y="53" class="st3" width="5.87" height="5.87"/>
	<rect x="35.21" y="47.14" class="st3" width="5.87" height="5.87"/>
	<rect x="35.21" y="41.27" class="st3" width="5.87" height="5.87"/>
	<rect x="41.08" y="41.27" class="st1" width="5.87" height="5.87"/>
	<rect x="35.21" y="35.4" class="st3" width="5.87" height="5.87"/>
	<rect x="52.81" y="58.87" class="st3" width="5.87" height="5.87"/>
	<rect x="52.81" y="53" class="st3" width="5.87" height="5.87"/>
	<rect x="52.81" y="47.14" class="st1" width="5.87" height="5.87"/>
	<rect x="52.81" y="41.27" class="st3" width="5.87" height="5.87"/>
	<rect x="52.81" y="35.4" class="st3" width="5.87" height="5.87"/>
	<rect x="58.67" y="58.87" class="st3" width="5.87" height="5.87"/>
	<rect x="58.67" y="53" class="st3" width="5.87" height="5.87"/>
	<rect x="58.67" y="47.14" class="st3" width="5.87" height="5.87"/>
	<rect x="58.67" y="41.27" class="st3" width="5.87" height="5.87"/>
	<rect x="58.67" y="35.4" class="st3" width="5.87" height="5.87"/>
	<rect x="70.4" y="41.27" class="st0" width="5.87" height="5.87"/>
	<rect x="70.4" y="35.4" class="st0" width="5.87" height="5.87"/>
	<rect x="70.4" y="29.54" class="st0" width="5.87" height="5.87"/>
	<rect x="70.4" y="23.67" class="st0" width="5.87" height="5.87"/>
	<rect x="70.4" y="17.81" class="st1" width="5.87" height="5.87"/>
	<rect x="64.54" y="41.27" class="st1" width="5.87" height="5.87"/>
	<rect x="64.54" y="35.4" class="st1" width="5.87" height="5.87"/>
	<rect x="64.54" y="29.54" class="st0" width="5.87" height="5.87"/>
	<rect x="64.54" y="23.67" class="st0" width="5.87" height="5.87"/>
	<rect x="64.54" y="17.81" class="st0" width="5.87" height="5.87"/>
	<rect x="64.54" y="11.94" class="st1" width="5.87" height="5.87"/>
	<rect x="17.62" y="29.54" class="st1" width="5.87" height="5.87"/>
	<rect x="17.62" y="23.67" class="st1" width="5.87" height="5.87"/>
	<rect x="76.27" y="41.27" class="st0" width="5.87" height="5.87"/>
	<rect x="76.27" y="35.4" class="st0" width="5.87" height="5.87"/>
	<rect x="76.27" y="29.54" class="st1" width="5.87" height="5.87"/>
	<rect x="76.27" y="23.67" class="st1" width="5.87" height="5.87"/>
	<rect x="23.48" y="29.54" class="st3" width="5.87" height="5.87"/>
	<rect x="23.48" y="23.67" class="st3" width="5.87" height="5.87"/>
	<rect x="82.13" y="41.27" class="st1" width="5.87" height="5.87"/>
	<rect x="82.13" y="35.4" class="st1" width="5.87" height="5.87"/>
	<rect x="29.35" y="29.54" class="st3" width="5.87" height="5.87"/>
	<rect x="29.35" y="23.67" class="st3" width="5.87" height="5.87"/>
	<rect x="29.35" y="11.94" class="st0" width="5.87" height="5.87"/>
	<rect x="64.54" y="58.87" class="st3" width="5.87" height="5.87"/>
	<rect x="64.54" y="53" class="st1" width="5.87" height="5.87"/>
	<rect x="64.54" y="47.14" class="st1" width="5.87" height="5.87"/>
	<rect x="35.21" y="29.54" class="st0" width="5.87" height="5.87"/>
	<rect x="35.21" y="23.67" class="st3" width="5.87" height="5.87"/>
	<rect x="35.21" y="11.94" class="st3" width="5.87" height="5.87"/>
	<rect x="70.4" y="58.87" class="st0" width="5.87" height="5.87"/>
	<rect x="70.4" y="53" class="st0" width="5.87" height="5.87"/>
	<rect x="70.4" y="47.14" class="st0" width="5.87" height="5.87"/>
	<rect x="52.81" y="29.54" class="st3" width="5.87" height="5.87"/>
	<rect x="52.81" y="23.67" class="st1" width="5.87" height="5.87"/>
	<rect x="52.81" y="11.94" class="st0" width="5.87" height="5.87"/>
	<rect x="76.27" y="58.87" class="st0" width="5.87" height="5.87"/>
	<rect x="76.27" y="53" class="st0" width="5.87" height="5.87"/>
	<rect x="76.27" y="47.14" class="st0" width="5.87" height="5.87"/>
	<rect x="82.13" y="47.14" class="st1" width="5.87" height="5.87"/>
	<rect x="58.67" y="29.54" class="st1" width="5.87" height="5.87"/>
	<rect x="58.67" y="23.67" class="st0" width="5.87" height="5.87"/>
	<rect x="17.62" y="58.87" class="st2" width="5.87" height="5.87"/>
	<rect x="17.62" y="53" class="st2" width="5.87" height="5.87"/>
	<rect x="17.62" y="47.14" class="st2" width="5.87" height="5.87"/>
	<rect x="17.62" y="41.27" class="st2" width="5.87" height="5.87"/>
	<rect x="17.62" y="35.4" class="st2" width="5.87" height="5.87"/>
	<rect x="23.48" y="17.81" class="st0" width="5.87" height="5.87"/>
	<rect x="29.35" y="17.81" class="st3" width="5.87" height="5.87"/>
	<rect x="35.21" y="17.81" class="st3" width="5.87" height="5.87"/>
	<rect x="52.81" y="17.81" class="st0" width="5.87" height="5.87"/>
	<rect x="58.67" y="17.81" class="st0" width="5.87" height="5.87"/>
	<rect x="58.67" y="11.94" class="st0" width="5.87" height="5.87"/>
	<rect x="52.81" y="0.21" class="st1" width="5.87" height="5.87"/>
	<rect x="35.21" y="6.08" class="st0" width="5.87" height="5.87"/>
	<rect x="52.81" y="6.08" class="st0" width="5.87" height="5.87"/>
	<rect x="58.67" y="6.08" class="st1" width="5.87" height="5.87"/>
	<rect x="41.08" y="58.87" class="st1" width="5.87" height="5.87"/>
	<rect x="41.08" y="53" class="st3" width="5.87" height="5.87"/>
	<rect x="41.08" y="47.14" class="st3" width="5.87" height="5.87"/>
	<rect x="41.08" y="35.4" class="st3" width="5.87" height="5.87"/>
	<rect x="41.08" y="29.54" class="st3" width="5.87" height="5.87"/>
	<rect x="41.08" y="23.67" class="st0" width="5.87" height="5.87"/>
	<rect x="41.08" y="11.94" class="st3" width="5.87" height="5.87"/>
	<rect x="41.08" y="17.81" class="st3" width="5.87" height="5.87"/>
	<rect x="41.08" y="0.21" class="st1" width="5.87" height="5.87"/>
	<rect x="41.08" y="6.08" class="st3" width="5.87" height="5.87"/>
	<rect x="23.48" y="64.73" class="st2" width="5.87" height="5.87"/>
	<rect x="23.48" y="70.6" class="st2" width="5.87" height="5.87"/>
	<rect x="23.48" y="76.46" class="st0" width="5.87" height="5.87"/>
	<rect x="29.35" y="64.73" class="st2" width="5.87" height="5.87"/>
	<rect x="29.35" y="70.6" class="st2" width="5.87" height="5.87"/>
	<rect x="29.35" y="76.46" class="st2" width="5.87" height="5.87"/>
	<rect x="29.35" y="82.33" class="st1" width="5.87" height="5.87"/>
	<rect x="76.27" y="64.73" class="st1" width="5.87" height="5.87"/>
	<rect x="76.27" y="70.6" class="st0" width="5.87" height="5.87"/>
	<rect x="17.62" y="64.73" class="st0" width="5.87" height="5.87"/>
	<rect x="17.62" y="70.6" class="st0" width="5.87" height="5.87"/>
	<rect x="70.4" y="64.73" class="st3" width="5.87" height="5.87"/>
	<rect x="70.4" y="70.6" class="st3" width="5.87" height="5.87"/>
	<rect x="64.54" y="64.73" class="st3" width="5.87" height="5.87"/>
	<rect x="64.54" y="70.6" class="st3" width="5.87" height="5.87"/>
	<rect x="64.54" y="82.33" class="st0" width="5.87" height="5.87"/>
	<rect x="58.67" y="64.73" class="st2" width="5.87" height="5.87"/>
	<rect x="58.67" y="70.6" class="st3" width="5.87" height="5.87"/>
	<rect x="58.67" y="82.33" class="st3" width="5.87" height="5.87"/>
	<rect x="41.08" y="64.73" class="st3" width="5.87" height="5.87"/>
	<rect x="41.08" y="70.6" class="st0" width="5.87" height="5.87"/>
	<rect x="41.08" y="82.33" class="st2" width="5.87" height="5.87"/>
	<rect x="35.21" y="64.73" class="st0" width="5.87" height="5.87"/>
	<rect x="35.21" y="70.6" class="st2" width="5.87" height="5.87"/>
	<rect x="70.4" y="76.46" class="st0" width="5.87" height="5.87"/>
	<rect x="64.54" y="76.46" class="st3" width="5.87" height="5.87"/>
	<rect x="58.67" y="76.46" class="st3" width="5.87" height="5.87"/>
	<rect x="41.08" y="76.46" class="st2" width="5.87" height="5.87"/>
	<rect x="35.21" y="76.46" class="st2" width="5.87" height="5.87"/>
	<rect x="35.21" y="82.33" class="st2" width="5.87" height="5.87"/>
	<rect x="41.08" y="94.06" class="st1" width="5.87" height="5.87"/>
	<rect x="58.67" y="88.19" class="st0" width="5.87" height="5.87"/>
	<rect x="41.08" y="88.19" class="st2" width="5.87" height="5.87"/>
	<rect x="35.21" y="88.19" class="st1" width="5.87" height="5.87"/>
	<rect x="52.81" y="64.73" class="st3" width="5.87" height="5.87"/>
	<rect x="52.81" y="70.6" class="st2" width="5.87" height="5.87"/>
	<rect x="52.81" y="82.33" class="st3" width="5.87" height="5.87"/>
	<rect x="52.81" y="76.46" class="st3" width="5.87" height="5.87"/>
	<rect x="52.81" y="94.06" class="st1" width="5.87" height="5.87"/>
	<rect x="52.81" y="88.19" class="st3" width="5.87" height="5.87"/>
	<rect x="46.94" y="58.87" class="st3" width="5.87" height="5.87"/>
	<rect x="46.94" y="53" class="st1" width="5.87" height="5.87"/>
	<rect x="46.94" y="47.14" class="st3" width="5.87" height="5.87"/>
	<rect x="46.94" y="41.27" class="st3" width="5.87" height="5.87"/>
	<rect x="46.94" y="35.4" class="st1" width="5.87" height="5.87"/>
	<rect x="46.94" y="29.54" class="st3" width="5.87" height="5.87"/>
	<rect x="46.94" y="23.67" class="st1" width="5.87" height="5.87"/>
	<rect x="46.94" y="11.94" class="st3" width="5.87" height="5.87"/>
	<rect x="46.94" y="17.81" class="st3" width="5.87" height="5.87"/>
	<rect x="46.94" y="0.21" class="st1" width="5.87" height="5.87"/>
	<rect x="46.94" y="6.08" class="st3" width="5.87" height="5.87"/>
	<rect x="46.94" y="64.73" class="st3" width="5.87" height="5.87"/>
	<rect x="46.94" y="70.6" class="st0" width="5.87" height="5.87"/>
	<rect x="46.94" y="82.33" class="st2" width="5.87" height="5.87"/>
	<rect x="46.94" y="76.46" class="st2" width="5.87" height="5.87"/>
	<rect x="46.94" y="94.06" class="st1" width="5.87" height="5.87"/>
	<rect x="46.94" y="88.19" class="st2" width="5.87" height="5.87"/>
	<rect x="82.13" y="58.87" class="st1" width="5.87" height="5.87"/>
	<rect x="82.13" y="53" class="st1" width="5.87" height="5.87"/>
</g>
</svg>
