<?xml version="1.0" encoding="utf-8"?>
<!-- Generator: Adobe Illustrator 25.3.1, SVG Export Plug-In . SVG Version: 6.00 Build 0)  -->
<svg version="1.1" id="圖層_1" xmlns="http://www.w3.org/2000/svg" xmlns:xlink="http://www.w3.org/1999/xlink" x="0px" y="0px"
	 viewBox="0 0 283.5 283.5" style="enable-background:new 0 0 283.5 283.5;" xml:space="preserve">
<style type="text/css">
	.st0{fill:#FCEE21;}
</style>
<g>
	<path class="st0" d="M258.3,228.5l-29.7,29.7c-2.4,2.4-6.3,2.4-8.7,0L51.2,89.5c-2.4-2.4-2.4-6.3,0-8.7l29.7-29.7
		c2.4-2.4,6.3-2.4,8.7,0l168.7,168.7C260.7,222.2,260.7,226.1,258.3,228.5z"/>
	<path class="st0" d="M36.2,213.6l-9-9c-2.9-2.9-4.3-7-3.8-11.1l4.4-35.6c0.4-3,1.7-5.7,3.8-7.8L47.9,125
		C68,93.8,94.6,67.2,125.8,47.1l25.2-16.3c2.2-2.2,5.1-3.5,8.1-3.8l35-3.5c4-0.4,7.9,1,10.8,3.9l8.8,8.8c2.4,2.4,2.4,6.3,0,8.7
		l-46.8,31.8c-36.8,25-68.5,57-93.3,94L45,213.6C42.6,216,38.7,216,36.2,213.6z"/>
</g>
</svg>
