<?xml version="1.0" encoding="utf-8"?>
<!-- Generator: Adobe Illustrator 26.2.1, SVG Export Plug-In . SVG Version: 6.00 Build 0)  -->
<svg version="1.1" id="圖層_1" xmlns="http://www.w3.org/2000/svg" xmlns:xlink="http://www.w3.org/1999/xlink" x="0px" y="0px"
	 viewBox="0 0 30 24" style="enable-background:new 0 0 30 24;" xml:space="preserve">
<style type="text/css">
	.st0{fill:#725A7A;}
</style>
<path class="st0" d="M4.97,8.99l0.85,0.47l14.12-7.78c0.87-0.94,1.88-1.46,2.98-1.46c0,0,0,0,0,0c0,0,0,0,0,0c3.42,0,6,5.1,6,11.86
	c0,6.76-2.58,11.86-6.01,11.86c-1.1,0-2.11-0.53-2.98-1.46l-2.45-1.35l-1.08,1.49c-0.53,0.73-1.38,1.13-2.24,1.13
	c-0.5,0-1.01-0.13-1.46-0.41l-4.82-2.91c-0.66-0.4-1.11-1.05-1.23-1.79c-0.12-0.74,0.09-1.49,0.59-2.06l0.64-0.75l-2.07-1.14
	l-0.85,0.47c-0.41,0.47-0.92,0.75-1.49,0.75C2.09,15.9,1,14.22,1,12.07c0-2.15,1.09-3.83,2.48-3.83C4.04,8.24,4.55,8.52,4.97,8.99z
	 M8.98,9.84c-0.31,0.13-0.48,0.44-0.41,0.75c0.01,0.04,0.02,0.08,0.04,0.12c0.14,0.31,0.49,0.47,0.82,0.38l7.48-1.95
	c0.06-0.02,0.12-0.04,0.18-0.07c0.53-0.23,0.82-0.79,0.66-1.34c-0.06-0.21-0.19-0.4-0.35-0.54c-0.29-0.26-0.72-0.38-1.13-0.27
	c-0.05,0.01-0.1,0.03-0.15,0.05l-3.62,1.46L8.98,9.84z M22.92,21.64c1.47,0,3.61-3.73,3.61-9.57c0-5.84-2.14-9.57-3.61-9.57
	c-1.47,0-3.61,3.73-3.61,9.57C19.31,17.91,21.45,21.64,22.92,21.64z M8.55,18.34c0.04,0.22,0.17,0.41,0.36,0.53l4.82,2.91
	c0.37,0.22,0.85,0.13,1.09-0.21l0.99-1.38l-6.24-3.44l-0.85,0.98C8.58,17.9,8.51,18.12,8.55,18.34z"/>
</svg>
