<?xml version="1.0" encoding="utf-8"?>
<!-- Generator: Adobe Illustrator 26.0.3, SVG Export Plug-In . SVG Version: 6.00 Build 0)  -->
<svg version="1.1" id="Layer_1" xmlns="http://www.w3.org/2000/svg" xmlns:xlink="http://www.w3.org/1999/xlink" x="0px" y="0px"
	 viewBox="0 0 450 450" style="enable-background:new 0 0 450 450;" xml:space="preserve">
<style type="text/css">
	.st0{fill:#01FFB3;}
</style>
<g>
	<g>
		<path class="st0" d="M225,450C100.93,450,0,349.07,0,225S100.93,0,225,0c39.47,0,78.31,10.37,112.3,29.99
			c4.61,2.66,6.19,8.57,3.53,13.18c-1.72,2.97-4.94,4.81-8.4,4.81c-1.68,0-3.33-0.44-4.78-1.28C296.6,28.77,261.1,19.29,225,19.29
			C111.57,19.29,19.29,111.57,19.29,225c0,113.43,92.28,205.71,205.71,205.71c113.43,0,205.71-92.28,205.71-205.71
			c0-9.2-0.61-18.45-1.82-27.49c-2.13-15.95-6.12-31.59-11.87-46.47c-3.84-9.93-8.45-19.58-13.72-28.7
			c-1.29-2.23-1.63-4.83-0.96-7.32c0.67-2.49,2.26-4.57,4.5-5.86c1.47-0.85,3.12-1.29,4.8-1.29c3.45,0,6.66,1.85,8.38,4.83
			c5.78,10.01,10.82,20.57,15,31.39c6.31,16.35,10.69,33.47,13,50.87c1.32,9.88,1.99,19.98,1.99,30.04
			C450,349.07,349.07,450,225,450z"/>
	</g>
	<g>
		<path class="st0" d="M196.29,306.43c-2.57,0-5-1-6.82-2.83l-57.43-57.43c-3.76-3.76-3.76-9.88,0-13.64
			c1.82-1.82,4.24-2.83,6.82-2.83c2.57,0,5,1,6.82,2.83l47.28,47.28c0.92,0.92,2.13,1.38,3.33,1.38c1.21,0,2.41-0.46,3.33-1.38
			l104.7-104.7c1.82-1.82,4.24-2.83,6.82-2.83s5,1,6.82,2.83c3.76,3.76,3.76,9.88,0,13.64L203.11,303.6
			C201.28,305.43,198.86,306.43,196.29,306.43z"/>
	</g>
</g>
</svg>
