<?xml version="1.0" encoding="utf-8"?>
<!-- Generator: Adobe Illustrator 26.0.3, SVG Export Plug-In . SVG Version: 6.00 Build 0)  -->
<svg version="1.1" id="圖層_1" xmlns="http://www.w3.org/2000/svg" xmlns:xlink="http://www.w3.org/1999/xlink" x="0px" y="0px"
	 viewBox="0 0 200 40" style="enable-background:new 0 0 200 40;" xml:space="preserve">
<style type="text/css">
	.st0{fill:#21D83A;}
	.st1{fill:#FFFFFF;}
</style>
<path class="st0" d="M164.63,4.88c0,2.35-0.01,4.7-0.01,7.06c0,0.05,0.01,0.09,0.03,0.22c1.67-1.71,3.31-3.38,4.86-4.98
	c1.02,0.95,2.02,1.87,3.05,2.83c-1.76,1.68-3.47,3.3-5.25,4.99c0.18,0.01,0.29,0.02,0.4,0.02c2.18,0,4.35,0,6.53,0
	c0.41,0,0.42,0,0.42,0.41c0,1.1,0,2.2,0,3.31c0,0.43,0,0.43-0.45,0.43c-2.18,0-4.35,0-6.53,0c-0.12,0-0.23,0-0.44,0
	c1.79,1.74,3.52,3.42,5.23,5.08c-0.98,0.96-1.94,1.91-2.89,2.85c-2.34-2.3-4.73-4.67-7.12-7.03c-2.39,2.37-4.8,4.75-7.18,7.1
	c-0.96-0.96-1.91-1.91-2.89-2.89c1.71-1.66,3.44-3.34,5.17-5.02c-0.01-0.03-0.02-0.05-0.03-0.08c-0.11,0-0.22,0-0.34,0
	c-2.2,0-4.39,0-6.59,0c-0.4,0-0.4,0-0.4-0.39c0-1.1,0-2.2,0-3.31c0-0.43,0-0.43,0.45-0.43c2.18,0,4.35,0,6.53,0
	c0.11,0,0.21,0,0.32,0c0.01-0.02,0.03-0.05,0.04-0.07c-1.72-1.64-3.45-3.29-5.19-4.95c0.97-1,1.92-1.97,2.91-2.98
	c1.66,1.7,3.3,3.38,4.93,5.05c0.03-0.01,0.06-0.02,0.09-0.02c0-2.4,0-4.8,0-7.21C161.73,4.88,163.18,4.88,164.63,4.88z"/>
<path class="st1" d="M149.12,28.52c-0.09,0.38-0.14,0.76-0.26,1.13c-0.6,1.91-1.86,3.3-3.55,4.32c-2.03,1.22-4.24,1.62-6.58,1.39
	c-1.79-0.18-3.44-0.72-4.88-1.81c-1.76-1.34-2.79-3.15-3.26-5.28c-0.61-2.78-0.47-5.51,0.81-8.1c1.44-2.89,3.78-4.6,7.01-4.98
	c2.65-0.31,5.13,0.22,7.27,1.89c1.62,1.27,2.57,2.97,3.08,4.94c0.34,1.31,0.45,2.65,0.44,4.01c0,0.31-0.19,0.26-0.37,0.26
	c-4.67,0-9.34,0-14.01,0c-0.13,0-0.25,0-0.45,0c0.06,0.36,0.09,0.69,0.16,1.02c0.5,2.36,1.92,3.76,4.31,4.16
	c1.62,0.27,3.17,0.02,4.54-0.95c0.65-0.46,1.13-1.05,1.4-1.81c0.04-0.1,0.18-0.23,0.27-0.23c1.27-0.01,2.54-0.01,3.82-0.01
	C148.94,28.47,149,28.49,149.12,28.52z M144.7,22.79c-0.38-1.85-2-3.87-5.12-3.83c-2.86,0.04-4.44,2.14-4.83,3.83
	C138.06,22.79,141.37,22.79,144.7,22.79z"/>
<path class="st1" d="M113.68,26.28c0.17,2.51,1.53,4.92,4.79,5.23c1.49,0.14,2.89-0.1,4.14-0.96c0.68-0.47,1.19-1.07,1.45-1.87
	c0.05-0.16,0.13-0.22,0.3-0.22c1.25,0.01,2.5,0.01,3.76,0c0.23,0,0.26,0.09,0.22,0.29c-0.34,2.01-1.43,3.55-3.05,4.73
	c-1.81,1.33-3.87,1.93-6.11,1.92c-1.9-0.01-3.71-0.39-5.35-1.39c-2.13-1.3-3.38-3.24-3.93-5.63c-0.65-2.83-0.53-5.6,0.79-8.24
	c1.39-2.8,3.65-4.51,6.76-4.94c2.89-0.4,5.58,0.18,7.85,2.14c1.54,1.34,2.4,3.08,2.84,5.05c0.26,1.14,0.35,2.29,0.35,3.45
	c0,0.43,0,0.43-0.42,0.43c-4.66,0-9.32,0-13.99,0C113.96,26.28,113.83,26.28,113.68,26.28z M114.01,22.78c3.33,0,6.65,0,9.96,0
	c-0.38-1.78-1.89-3.74-4.85-3.82C116.29,18.88,114.56,20.76,114.01,22.78z"/>
<path class="st1" d="M86.25,34.87c-0.1,0-0.19,0-0.29,0c-1.52,0-3.04,0-4.56,0c-0.21,0-0.35-0.06-0.48-0.22
	c-2.41-2.94-4.83-5.88-7.24-8.82c-0.06-0.07-0.13-0.14-0.24-0.27c0,0.18,0,0.28,0,0.39c0,2.84,0,5.68,0,8.52c0,0.4,0,0.41-0.41,0.41
	c-1.15,0-2.31-0.01-3.46,0.01c-0.27,0-0.33-0.08-0.33-0.34c0.01-8.69,0.01-17.37,0-26.06c0-0.26,0.07-0.34,0.34-0.34
	c1.16,0.01,2.33,0.02,3.49,0c0.31,0,0.38,0.09,0.38,0.39c-0.01,5.33-0.01,10.66-0.01,15.99c0,0.12,0,0.23,0,0.35
	c0.03,0.02,0.06,0.05,0.09,0.07c0.04-0.07,0.07-0.16,0.13-0.22c2.41-2.95,4.83-5.9,7.24-8.86c0.15-0.19,0.3-0.27,0.55-0.27
	c1.5,0.01,3,0,4.5,0.01c0.1,0,0.21,0.01,0.38,0.02c-0.11,0.14-0.17,0.22-0.23,0.3c-2.58,3.02-5.16,6.04-7.75,9.05
	c-0.2,0.23-0.2,0.36,0,0.59c2.58,2.99,5.16,5.99,7.73,8.99c0.07,0.08,0.14,0.16,0.21,0.25C86.27,34.82,86.26,34.85,86.25,34.87z"/>
<path class="st1" d="M53.73,18.09c0.39-0.44,0.73-0.87,1.12-1.24c1.14-1.07,2.53-1.58,4.06-1.73c1.38-0.13,2.72,0.01,3.98,0.63
	c1.86,0.9,2.96,2.44,3.61,4.34c0.4,1.16,0.59,2.37,0.6,3.59c0.02,3.62,0.01,7.25,0.01,10.87c0,0.25-0.08,0.32-0.32,0.32
	c-1.17-0.01-2.35-0.01-3.52,0c-0.3,0-0.36-0.1-0.36-0.38c0.01-3.3,0-6.59,0.01-9.89c0-0.99-0.09-1.96-0.42-2.9
	c-0.69-1.96-2.3-2.96-4.37-2.79c-1.62,0.13-2.87,0.8-3.65,2.25c-0.37,0.69-0.59,1.43-0.67,2.21c-0.07,0.7-0.11,1.41-0.11,2.11
	c-0.01,3,0,6-0.01,8.99c0,0.39,0,0.39-0.39,0.39c-1.15,0-2.31-0.01-3.46,0c-0.24,0-0.32-0.07-0.32-0.32
	c0.01-6.21,0.01-12.43,0.01-18.64c0-0.25,0.07-0.32,0.32-0.32c1.18,0.01,2.37,0.01,3.55,0c0.25,0,0.33,0.09,0.32,0.33
	C53.72,16.64,53.73,17.35,53.73,18.09z"/>
<path class="st1" d="M24.61,34.85c0-0.15,0-0.26,0-0.38c0-8.65,0-17.29,0-25.94c0-0.39,0-0.39,0.39-0.39c1.18,0,2.37,0,3.55,0
	c0.42,0,0.42,0,0.42,0.42c0,6.72,0,13.44,0,20.16c0,0.56,0,1.11,0,1.67c0,0.44,0,0.44,0.46,0.44c3.67,0,7.34,0,11,0
	c0.45,0,0.45,0,0.45,0.45c0,1.09-0.01,2.18,0,3.28c0,0.23-0.06,0.31-0.3,0.31c-5.23-0.01-10.46,0-15.69-0.01
	C24.82,34.87,24.74,34.86,24.61,34.85z"/>
<path class="st1" d="M97.06,19.11c-0.19,0-0.33,0-0.46,0c-1.37,0-2.74,0-4.12,0c-0.24,0-0.33,0.07-0.33,0.32
	c0.01,3.23,0,6.45,0.01,9.68c0,0.95,0.53,1.64,1.4,1.83c0.22,0.05,0.45,0.05,0.68,0.06c0.74,0.01,1.47,0,2.21,0
	c0.13,0,0.26,0.01,0.41,0.02c0.01,0.11,0.02,0.21,0.02,0.3c0,1.09-0.01,2.18,0.01,3.28c0,0.25-0.08,0.33-0.32,0.32
	c-1.22-0.02-2.45-0.01-3.67-0.05c-2.6-0.09-4.5-1.8-4.87-4.37c-0.08-0.54-0.12-1.09-0.12-1.63c-0.01-5.91-0.01-11.81-0.01-17.72
	c0-0.42,0-0.42,0.42-0.42c1.16,0,2.33,0.01,3.49-0.01c0.27,0,0.36,0.07,0.36,0.35c-0.01,1.37-0.01,2.74-0.01,4.11
	c0,0.44,0,0.44,0.43,0.44c1.36,0,2.72,0.01,4.09-0.01c0.29,0,0.4,0.06,0.39,0.38c-0.02,0.92-0.01,1.85-0.01,2.77
	C97.06,18.85,97.06,18.95,97.06,19.11z"/>
<path class="st1" d="M109.29,19.15c-0.34-0.04-0.64-0.1-0.94-0.09c-0.58,0.02-1.18,0.01-1.74,0.13c-1.23,0.26-2.06,1.06-2.64,2.14
	c-0.55,1.04-0.85,2.17-0.87,3.34c-0.06,3.16-0.05,6.33-0.07,9.5c0,0.15-0.01,0.3,0,0.45c0.02,0.21-0.05,0.3-0.28,0.3
	c-1.21-0.01-2.43-0.01-3.64,0c-0.21,0-0.29-0.08-0.28-0.28c0.01-0.06,0-0.12,0-0.18c0-6.12,0-12.25,0-18.37c0-0.45,0-0.46,0.46-0.46
	c1.13,0,2.27,0.01,3.4,0c0.25,0,0.35,0.07,0.34,0.34c-0.02,0.62-0.01,1.25-0.01,1.93c0.07-0.08,0.11-0.12,0.15-0.17
	c1.27-1.94,3.08-2.76,5.37-2.58c0.76,0.06,0.76,0.07,0.76,0.82c0,0.95,0,1.91,0,2.86C109.29,18.9,109.29,19.01,109.29,19.15z"/>
<path class="st1" d="M42.98,34.87c0-0.18,0-0.29,0-0.41c0-6.15,0-12.31,0-18.46c0-0.4,0-0.4,0.38-0.4c1.14,0,2.29,0.01,3.43-0.01
	c0.31,0,0.38,0.1,0.38,0.39c-0.01,6.17-0.01,12.35,0,18.52c0,0.28-0.08,0.37-0.37,0.37c-1.15-0.02-2.31-0.01-3.46-0.01
	C43.24,34.87,43.14,34.87,42.98,34.87z"/>
<path class="st0" d="M164.62,30.01c0,1.5,0,3,0,4.49c0,0.4,0,0.4-0.39,0.4c-1.2,0-2.4-0.01-3.61,0.01c-0.27,0-0.36-0.07-0.36-0.35
	c0.01-3.05,0.01-6.09,0-9.14c0-0.26,0.09-0.34,0.35-0.34c1.22,0.01,2.44,0.01,3.67,0c0.29,0,0.35,0.11,0.35,0.37
	C164.61,26.97,164.62,28.49,164.62,30.01z"/>
<path class="st1" d="M42.39,10.8c0-1.48,1.21-2.66,2.72-2.65c1.5,0,2.72,1.19,2.73,2.66c0.01,1.48-1.26,2.73-2.75,2.72
	C43.6,13.51,42.39,12.29,42.39,10.8z"/>
</svg>
