<?xml version="1.0" encoding="utf-8"?>
<!-- Generator: Adobe Illustrator 26.0.3, SVG Export Plug-In . SVG Version: 6.00 Build 0)  -->
<svg version="1.1" id="Layer_1" xmlns="http://www.w3.org/2000/svg" xmlns:xlink="http://www.w3.org/1999/xlink" x="0px" y="0px"
	 viewBox="0 0 450 450" style="enable-background:new 0 0 450 450;" xml:space="preserve">
<style type="text/css">
	.st0{fill:#C9C9C9;}
</style>
<g>
	<g>
		<path class="st0" d="M225.1,449.9C101.1,449.9,0.2,349,0.2,225S101.1,0.1,225.1,0.1c39.5,0,78.3,10.4,112.3,30
			c4.6,2.7,6.2,8.6,3.5,13.2c-1.7,3-4.9,4.8-8.4,4.8c-1.7,0-3.3-0.4-4.8-1.3c-31-17.9-66.5-27.4-102.6-27.4
			C111.7,19.4,19.5,111.6,19.5,225s92.2,205.6,205.6,205.6c113.4,0,205.6-92.2,205.6-205.6c0-9.2-0.6-18.4-1.8-27.5
			c-2.1-15.9-6.1-31.5-11.9-46.5c-3.8-9.9-8.5-19.6-13.7-28.7c-1.3-2.2-1.6-4.8-1-7.3s2.3-4.6,4.5-5.9c1.5-0.8,3.1-1.3,4.8-1.3
			c3.5,0,6.7,1.8,8.4,4.8c5.8,10,10.8,20.5,15,31.4c6.3,16.4,10.7,33.5,13,50.8c1.3,9.9,2,20,2,30C450,349,349.1,449.9,225.1,449.9z
			"/>
	</g>
	<g>
		<path class="st0" d="M296.9,306.4c-2.6,0-5-1-6.8-2.8L228.4,242c-0.9-0.9-2.1-1.4-3.3-1.4s-2.4,0.5-3.3,1.4l-61.6,61.6
			c-1.8,1.8-4.2,2.8-6.8,2.8s-5-1-6.8-2.8c-3.8-3.8-3.8-9.9,0-13.6l61.6-61.6c1.8-1.8,1.8-4.8,0-6.7l-61.6-61.6
			c-3.8-3.8-3.8-9.9,0-13.6c1.8-1.8,4.2-2.8,6.8-2.8s5,1,6.8,2.8l61.6,61.6c0.9,0.9,2.1,1.4,3.3,1.4s2.4-0.5,3.3-1.4l61.6-61.6
			c1.8-1.8,4.2-2.8,6.8-2.8c2.6,0,5,1,6.8,2.8c3.8,3.8,3.8,9.9,0,13.6l-61.6,61.6c-1.8,1.8-1.8,4.8,0,6.7l61.6,61.6
			c3.8,3.8,3.8,9.9,0,13.6C301.8,305.4,299.4,306.4,296.9,306.4z"/>
	</g>
</g>
</svg>
